<svg id="visual" viewBox="0 0 1920 1080" width="1920" height="1080" xmlns="http://www.w3.org/2000/svg" xmlns:xlink="http://www.w3.org/1999/xlink" version="1.1"><path d="M1669 1080L1691.5 1063.7C1714 1047.3 1759 1014.7 1752.7 982C1746.3 949.3 1688.7 916.7 1663 883.8C1637.3 851 1643.7 818 1643.7 785.2C1643.7 752.3 1637.3 719.7 1631 687C1624.7 654.3 1618.3 621.7 1640.7 589C1663 556.3 1714 523.7 1736.3 491C1758.7 458.3 1752.3 425.7 1742.8 393C1733.3 360.3 1720.7 327.7 1717.5 294.8C1714.3 262 1720.7 229 1701.5 196.2C1682.3 163.3 1637.7 130.7 1640.8 98C1644 65.3 1695 32.7 1720.5 16.3L1746 0L1920 0L1920 16.3C1920 32.7 1920 65.3 1920 98C1920 130.7 1920 163.3 1920 196.2C1920 229 1920 262 1920 294.8C1920 327.7 1920 360.3 1920 393C1920 425.7 1920 458.3 1920 491C1920 523.7 1920 556.3 1920 589C1920 621.7 1920 654.3 1920 687C1920 719.7 1920 752.3 1920 785.2C1920 818 1920 851 1920 883.8C1920 916.7 1920 949.3 1920 982C1920 1014.7 1920 1047.3 1920 1063.7L1920 1080Z" fill="#c273ff"></path><path d="M1458 1080L1464.5 1063.7C1471 1047.3 1484 1014.7 1448.8 982C1413.7 949.3 1330.3 916.7 1279 883.8C1227.7 851 1208.3 818 1234 785.2C1259.7 752.3 1330.3 719.7 1324 687C1317.7 654.3 1234.3 621.7 1227.8 589C1221.3 556.3 1291.7 523.7 1323.7 491C1355.7 458.3 1349.3 425.7 1365.3 393C1381.3 360.3 1419.7 327.7 1422.8 294.8C1426 262 1394 229 1330 196.2C1266 163.3 1170 130.7 1189.2 98C1208.3 65.3 1342.7 32.7 1409.8 16.3L1477 0L1747 0L1721.5 16.3C1696 32.7 1645 65.3 1641.8 98C1638.7 130.7 1683.3 163.3 1702.5 196.2C1721.7 229 1715.3 262 1718.5 294.8C1721.7 327.7 1734.3 360.3 1743.8 393C1753.3 425.7 1759.7 458.3 1737.3 491C1715 523.7 1664 556.3 1641.7 589C1619.3 621.7 1625.7 654.3 1632 687C1638.3 719.7 1644.7 752.3 1644.7 785.2C1644.7 818 1638.3 851 1664 883.8C1689.7 916.7 1747.3 949.3 1753.7 982C1760 1014.7 1715 1047.3 1692.5 1063.7L1670 1080Z" fill="#b150ff"></path><path d="M1170 1080L1157.2 1063.7C1144.3 1047.3 1118.7 1014.7 1061.2 982C1003.7 949.3 914.3 916.7 853.7 883.8C793 851 761 818 809 785.2C857 752.3 985 719.7 959.3 687C933.7 654.3 754.3 621.7 680.7 589C607 556.3 639 523.7 667.8 491C696.7 458.3 722.3 425.7 760.7 393C799 360.3 850 327.7 898 294.8C946 262 991 229 917.5 196.2C844 163.3 652 130.7 658.3 98C664.7 65.3 869.3 32.7 971.7 16.3L1074 0L1478 0L1410.8 16.3C1343.7 32.7 1209.3 65.3 1190.2 98C1171 130.7 1267 163.3 1331 196.2C1395 229 1427 262 1423.8 294.8C1420.7 327.7 1382.3 360.3 1366.3 393C1350.3 425.7 1356.7 458.3 1324.7 491C1292.7 523.7 1222.3 556.3 1228.8 589C1235.3 621.7 1318.7 654.3 1325 687C1331.3 719.7 1260.7 752.3 1235 785.2C1209.3 818 1228.7 851 1280 883.8C1331.3 916.7 1414.7 949.3 1449.8 982C1485 1014.7 1472 1047.3 1465.5 1063.7L1459 1080Z" fill="#9e1fff"></path><path d="M921 1080L914.5 1063.7C908 1047.3 895 1014.7 818.2 982C741.3 949.3 600.7 916.7 517.5 883.8C434.3 851 408.7 818 459.8 785.2C511 752.3 639 719.7 642.2 687C645.3 654.3 523.7 621.7 456.5 589C389.3 556.3 376.7 523.7 379.8 491C383 458.3 402 425.7 453.2 393C504.3 360.3 587.7 327.7 639 294.8C690.3 262 709.7 229 652 196.2C594.3 163.3 459.7 130.7 491.7 98C523.7 65.3 722.3 32.7 821.7 16.3L921 0L1075 0L972.7 16.3C870.3 32.7 665.7 65.3 659.3 98C653 130.7 845 163.3 918.5 196.2C992 229 947 262 899 294.8C851 327.7 800 360.3 761.7 393C723.3 425.7 697.7 458.3 668.8 491C640 523.7 608 556.3 681.7 589C755.3 621.7 934.7 654.3 960.3 687C986 719.7 858 752.3 810 785.2C762 818 794 851 854.7 883.8C915.3 916.7 1004.7 949.3 1062.2 982C1119.7 1014.7 1145.3 1047.3 1158.2 1063.7L1171 1080Z" fill="#8918dd"></path><path d="M0 1080L0 1063.7C0 1047.3 0 1014.7 0 982C0 949.3 0 916.7 0 883.8C0 851 0 818 0 785.2C0 752.3 0 719.7 0 687C0 654.3 0 621.7 0 589C0 556.3 0 523.7 0 491C0 458.3 0 425.7 0 393C0 360.3 0 327.7 0 294.8C0 262 0 229 0 196.2C0 163.3 0 130.7 0 98C0 65.3 0 32.7 0 16.3L0 0L922 0L822.7 16.3C723.3 32.7 524.7 65.3 492.7 98C460.7 130.7 595.3 163.3 653 196.2C710.7 229 691.3 262 640 294.8C588.7 327.7 505.3 360.3 454.2 393C403 425.7 384 458.3 380.8 491C377.7 523.7 390.3 556.3 457.5 589C524.7 621.7 646.3 654.3 643.2 687C640 719.7 512 752.3 460.8 785.2C409.7 818 435.3 851 518.5 883.8C601.7 916.7 742.3 949.3 819.2 982C896 1014.7 909 1047.3 915.5 1063.7L922 1080Z" fill="#7511bd"></path></svg>