<svg width="512" height="512" viewBox="0 0 512 512" fill="none" xmlns="http://www.w3.org/2000/svg">
<path d="M27.9701 92C27.9701 85.3726 33.3427 80 39.9701 80H454.488C462.86 80 468.659 88.3556 465.73 96.198L343.257 424.163C341.505 428.854 337.023 431.965 332.015 431.965H39.9701C33.3427 431.965 27.9701 426.592 27.9701 419.965V92Z" fill="white"/>
<path fill-rule="evenodd" clip-rule="evenodd" d="M39.9701 80C33.3427 80 27.9701 85.3726 27.9701 92V419.965C27.9701 426.592 33.3427 431.965 39.9701 431.965H332.015C337.023 431.965 341.505 428.854 343.257 424.163L370.578 351H406.015V301.09H409.27L441.386 351H483.484L447.028 299.354C458.601 296.461 467.426 290.602 473.502 281.777C479.722 272.808 482.833 262.681 482.833 251.397C482.833 237.798 478.42 226.08 469.596 216.243C460.771 206.406 448.113 201.487 431.621 201.487H426.411L465.73 96.198C468.659 88.3556 462.86 80 454.488 80H39.9701ZM414.58 233.169L426.411 201.487H369.776V351H370.578L406.015 256.106V269.842H429.885C435.382 269.842 439.433 268.034 442.037 264.417C444.785 260.8 446.16 256.46 446.16 251.397C446.16 246.334 444.785 242.066 442.037 238.594C439.433 234.977 435.382 233.169 429.885 233.169H414.58ZM414.58 233.169L406.015 256.106V233.169H414.58ZM118.061 364.237L114.806 396.787C122.907 399.536 130.936 400.91 138.893 400.91C156.108 400.91 168.766 396.136 176.868 386.588C185.114 377.04 189.237 364.671 189.237 349.481V201.487H152.564V349.481C152.564 354.689 151.406 358.884 149.092 362.067C146.922 365.25 143.522 366.841 138.893 366.841C129.923 366.841 122.979 365.973 118.061 364.237ZM336.415 201.487H300.176V281.994L255.474 201.487H222.707V351H258.946V269.408L304.733 351H336.415V201.487Z" fill="url(#paint0_linear_7_11)"/>
<defs>
<linearGradient id="paint0_linear_7_11" x1="366.884" y1="85" x2="162.861" y2="419.954" gradientUnits="userSpaceOnUse">
<stop stop-color="#AD00FF"/>
<stop offset="1" stop-color="#CC00FF"/>
</linearGradient>
</defs>
</svg>
